<svg width="24" height="24" viewBox="0 0 24 24" fill="none" xmlns="http://www.w3.org/2000/svg">
  <path opacity="0.4" d="M2.28099 19.6575C2.36966 20.5161 2.93261 21.1957 3.77688 21.3755C5.1095 21.6592 7.6216 22 12 22C16.3784 22 18.8905 21.6592 20.2232 21.3755C21.0674 21.1957 21.6303 20.5161 21.719 19.6575C21.8505 18.3844 22 16.0469 22 12C22 7.95305 21.8505 5.6156 21.719 4.34251C21.6303 3.48389 21.0674 2.80424 20.2231 2.62451C18.8905 2.34081 16.3784 2 12 2C7.6216 2 5.1095 2.34081 3.77688 2.62451C2.93261 2.80424 2.36966 3.48389 2.28099 4.34251C2.14952 5.6156 2 7.95305 2 12C2 16.0469 2.14952 18.3844 2.28099 19.6575Z" fill="#637381"/>
  <path d="M12 7.5C12.5523 7.5 13 7.05228 13 6.5C13 5.94772 12.5523 5.5 12 5.5C11.4477 5.5 11 5.94772 11 6.5C11 7.05228 11.4477 7.5 12 7.5Z" fill="#637381"/>
  <path d="M12 11.5C12.5523 11.5 13 11.0523 13 10.5C13 9.94772 12.5523 9.5 12 9.5C11.4477 9.5 11 9.94772 11 10.5C11 11.0523 11.4477 11.5 12 11.5Z" fill="#637381"/>
  <path d="M12 15.5C12.5523 15.5 13 15.0523 13 14.5C13 13.9477 12.5523 13.5 12 13.5C11.4477 13.5 11 13.9477 11 14.5C11 15.0523 11.4477 15.5 12 15.5Z" fill="#637381"/>
  <path d="M16 15.5C16.5523 15.5 17 15.0523 17 14.5C17 13.9477 16.5523 13.5 16 13.5C15.4477 13.5 15 13.9477 15 14.5C15 15.0523 15.4477 15.5 16 15.5Z" fill="#637381"/>
  <path d="M8 15.5C8.55228 15.5 9 15.0523 9 14.5C9 13.9477 8.55228 13.5 8 13.5C7.44772 13.5 7 13.9477 7 14.5C7 15.0523 7.44772 15.5 8 15.5Z" fill="#637381"/>
</svg>
