<svg width="64" height="64" viewBox="0 0 64 64" fill="none" xmlns="http://www.w3.org/2000/svg">
  <path opacity="0.48" d="M32 0L64 16V48L32 64L0 48V16L32 0Z" fill="url(#paint0_linear)" />
  <path d="M20 20L32 26.67V40L20 33.33V20Z" fill="url(#paint1_linear)" />
  <path d="M32 13.33L44 20V33.33L32 26.67V13.33Z" fill="url(#paint2_linear)" />
  <path d="M44 26.67L56 33.33V46.67L44 40V26.67Z" fill="url(#paint3_linear)" />
  <path d="M8 26.67L20 33.33V46.67L8 40V26.67Z" fill="url(#paint4_linear)" />
  <defs>
    <linearGradient id="paint0_linear" x1="0" y1="0" x2="64" y2="64" gradientUnits="userSpaceOnUse">
      <stop stop-color="#FFD700" />
      <stop offset="1" stop-color="#FFA500" />
    </linearGradient>
    <linearGradient id="paint1_linear" x1="20" y1="20" x2="32" y2="40" gradientUnits="userSpaceOnUse">
      <stop stop-color="#FFD700" />
      <stop offset="1" stop-color="#FFA500" />
    </linearGradient>
    <linearGradient id="paint2_linear" x1="32" y1="13.33" x2="44" y2="33.33" gradientUnits="userSpaceOnUse">
      <stop stop-color="#FFD700" />
      <stop offset="1" stop-color="#FFA500" />
    </linearGradient>
    <linearGradient id="paint3_linear" x1="44" y1="26.67" x2="56" y2="46.67" gradientUnits="userSpaceOnUse">
      <stop stop-color="#FFD700" />
      <stop offset="1" stop-color="#FFA500" />
    </linearGradient>
    <linearGradient id="paint4_linear" x1="8" y1="26.67" x2="20" y2="46.67" gradientUnits="userSpaceOnUse">
      <stop stop-color="#FFD700" />
      <stop offset="1" stop-color="#FFA500" />
    </linearGradient>
  </defs>
</svg>